<?xml version="1.0" encoding="UTF-8"?>
<svg xmlns="http://www.w3.org/2000/svg" viewBox="1588 511 821 177" width="821" height="177">

  <g transform="translate(0.000000,1200.000000) scale(0.100000,-0.100000)" fill="#1A1814" stroke="none">
<path d="M17654 6475 c-4 -11 -36 -89 -71 -174 -35 -85 -61 -156 -59 -158 2
-2 12 17 21 42 10 25 22 42 26 38 6 -7 38 -83 130 -315 l19 -48 -151 0 -151 0
7 27 c12 48 -2 22 -50 -97 -63 -154 -87 -199 -124 -234 l-31 -30 -28 20 c-15
11 -134 146 -265 300 l-237 279 92 88 c191 180 214 199 296 228 l77 28 -135 0
c-125 0 -133 -1 -102 -14 36 -16 42 -46 17 -83 -9 -12 -93 -92 -188 -179 -95
-87 -172 -161 -172 -164 0 -4 85 -107 188 -229 131 -156 187 -229 185 -243 -2
-13 -16 -25 -38 -33 -30 -11 8 -13 245 -13 l280 -1 -42 19 c-76 35 -81 83 -25
222 l38 94 160 3 159 2 38 -92 c52 -129 58 -153 45 -188 -5 -17 -11 -30 -11
-30 -1 0 -20 -7 -42 -15 -36 -13 15 -14 483 -15 329 0 522 4 522 10 0 5 7 59
16 121 8 61 13 114 10 117 -4 3 -6 -2 -6 -12 0 -32 -48 -112 -93 -153 -56 -52
-135 -77 -215 -71 -97 8 -92 -15 -92 460 0 274 4 416 11 430 6 11 29 28 52 39
l42 19 -205 -1 c-169 0 -199 -3 -173 -12 18 -7 43 -22 55 -35 l23 -23 3 -402
c2 -430 1 -439 -47 -463 -31 -16 -59 -5 -93 37 -16 20 -101 216 -207 479 -133
330 -182 440 -187 425z"/>
<path d="M20047 6474 c56 -20 113 -84 113 -127 0 -17 -14 -185 -31 -372 -35
-379 -36 -386 -109 -422 l-44 -23 129 1 c72 0 123 3 115 6 -117 42 -115 34
-80 419 16 176 30 329 30 342 0 12 3 22 8 22 4 0 85 -180 181 -400 96 -221
177 -397 181 -393 4 4 83 185 176 400 93 216 172 393 175 393 3 0 20 -160 37
-355 24 -260 30 -361 22 -375 -6 -11 -27 -29 -48 -39 l-37 -20 385 0 c381 -1
385 0 345 18 -23 10 -46 29 -53 45 -17 38 -17 794 0 832 7 16 30 35 53 45 l40
19 -205 -1 c-169 0 -199 -3 -173 -12 18 -7 43 -22 55 -35 l23 -23 0 -409 0
-410 -27 -27 c-46 -45 -135 -28 -157 30 -5 12 -24 197 -42 410 -37 434 -38
425 31 459 35 17 35 17 -83 15 l-118 -2 -156 -363 c-142 -329 -158 -361 -169
-340 -6 13 -78 177 -159 366 l-148 342 -151 -1 c-146 -1 -150 -1 -109 -15z"/>
<path d="M16315 6455 c22 -8 41 -15 42 -15 1 0 9 -13 18 -30 13 -24 15 -89 15
-420 0 -331 -2 -396 -15 -420 -9 -17 -17 -30 -18 -30 -1 0 -20 -7 -42 -15 -37
-13 -26 -14 160 -14 165 0 194 3 168 12 -18 7 -43 22 -55 35 l-23 23 0 409 0
409 23 23 c12 13 37 28 55 35 26 9 -3 12 -168 12 -186 0 -197 -1 -160 -14z"/>
<path d="M18827 6457 c18 -7 43 -22 55 -35 l23 -23 0 -414 c0 -410 0 -415 -21
-436 -12 -11 -37 -25 -55 -29 -19 -4 115 -8 309 -9 214 -1 342 3 342 9 0 5 7
59 16 121 8 61 13 114 10 117 -4 3 -6 -2 -6 -12 0 -32 -48 -112 -93 -153 -56
-52 -135 -77 -215 -71 -97 8 -92 -15 -92 460 0 274 4 416 11 430 6 11 29 28
52 39 l42 19 -205 -1 c-169 0 -199 -3 -173 -12z"/>
<path d="M17506 6115 c-9 -26 -7 -32 5 -12 6 10 9 21 6 23 -2 3 -7 -2 -11 -11z"/>
<path d="M17471 6029 c-12 -29 -20 -54 -18 -56 2 -2 14 20 26 48 12 29 20 54
18 56 -2 2 -14 -20 -26 -48z"/>
<path d="M17436 5945 c-9 -26 -7 -32 5 -12 6 10 9 21 6 23 -2 3 -7 -2 -11 -11z"/>
  </g>
  <g transform="translate(0.000000,1200.000000) scale(0.100000,-0.100000)" fill="#C4A862" stroke="none">
<path d="M22620 6320 c-24 -24 -26 -53 -4 -75 28 -27 84 4 84 46 0 17 -35 49
-52 49 -5 0 -17 -9 -28 -20z"/>
<path d="M22150 6133 c-46 -17 -120 -126 -120 -177 0 -26 13 -11 30 34 7 19
22 47 32 63 21 29 55 36 64 13 3 -8 -15 -91 -40 -184 -25 -94 -46 -184 -46
-201 0 -17 10 -42 24 -58 34 -39 92 -37 144 4 110 88 194 316 168 457 -9 45
-40 66 -64 42 -15 -15 -15 -20 3 -64 43 -107 22 -237 -54 -343 -58 -81 -115
-111 -149 -77 -20 20 -14 57 33 235 25 92 45 182 45 200 0 48 -29 71 -70 56z"/>
<path d="M22565 6125 c-36 -18 -69 -65 -96 -134 -23 -61 -9 -69 16 -9 9 23 25
54 36 70 22 30 56 37 65 13 3 -8 -13 -96 -36 -195 -23 -99 -42 -196 -43 -216
-2 -68 58 -81 116 -26 32 31 80 126 75 150 -2 10 -16 -9 -33 -46 -27 -61 -47
-82 -79 -82 -24 0 -20 30 24 217 22 92 40 187 40 211 0 36 -4 44 -26 52 -30
12 -23 13 -59 -5z"/>
<path d="M22955 6121 c-59 -27 -121 -96 -162 -179 -30 -60 -37 -87 -41 -152
-5 -94 0 -119 33 -158 43 -52 120 -49 178 5 32 31 77 112 77 140 0 9 -12 -7
-26 -35 -72 -145 -204 -134 -204 17 0 48 6 55 70 75 108 34 199 116 215 194
10 46 -10 88 -47 101 -40 14 -46 14 -93 -8z m75 -16 c19 -23 6 -90 -27 -144
-31 -50 -119 -111 -161 -111 -21 0 -23 3 -18 28 14 58 77 171 116 206 43 39
70 45 90 21z"/>
<path d="M23240 6133 c-46 -17 -120 -126 -120 -177 0 -26 13 -11 30 34 7 19
22 47 32 63 21 29 55 36 64 13 3 -8 -15 -91 -40 -186 -50 -188 -56 -238 -28
-262 53 -47 114 -24 172 66 l40 61 0 -42 c0 -56 17 -90 51 -102 123 -43 258
183 259 431 0 79 -15 113 -45 102 -22 -9 -25 -31 -10 -81 32 -105 10 -241 -56
-345 -36 -56 -71 -80 -107 -76 -40 4 -39 30 7 267 23 115 41 216 41 225 0 13
-7 16 -26 14 -24 -3 -28 -10 -59 -133 -67 -266 -162 -422 -222 -363 -13 14 -9
37 36 211 28 107 51 209 51 225 0 47 -29 70 -70 55z"/>
<path d="M19713 6100 c-37 -22 -63 -67 -63 -107 0 -60 64 -123 125 -123 62 0
125 63 125 125 0 63 -63 125 -127 125 -15 0 -42 -9 -60 -20z"/>
  </g>
</svg>