<svg xmlns="http://www.w3.org/2000/svg" width="748" height="405" viewBox="1625 283 748 405"><svg width="194" height="194" x="1835" y="323" viewBox="49 50 1641 1640"><path fill="#C4A862" d="M857.5 67.5c-26.5 6.3-35.7 42-16.2 63.3 8.7 9.4 8.7 9.4 9.2 67.4.5 67.3.8 80.6 1.5 89.8.5 6.8 1 7 14.3 7H880v-75.5c0-75.5 0-75.5 11.5-85.5 23-20.5 19.8-50.7-7-64.2-10-5-13.5-5.3-27-2.3M1060.3 93c-28.3 7.8-38 27.3-27.8 55 6.3 17.3 5 28.5-6.5 58.3-4.5 12-15.5 58.4-22.7 96.2-1 5.8 0 6.8 10.7 9.5 13.5 3.5 14.3 3 18-10.7 30-117 34.3-128.5 49.5-136.5 40.8-21 22.3-84-21.2-71.8M662 94.3c-32 5-39.2 47.5-11.7 69.2 9.2 7.3 13 12.5 15 20 1.5 5.8 4.5 15.8 6.5 22.8 2 6.7 9.7 35.4 17.2 63.4a1902 1902 0 0 0 14 51.8c3 3 27-7.2 26-11-15.2-47.5-37.5-143.2-34.7-147.5 19.7-27.5 16.5-55-7.5-66.5-8.8-4-11.5-4.2-24.8-2.2m580.5 76.5c-21.5 7.2-27.5 16.4-27.5 42.4 0 20.6-7.2 38.8-25.2 64.6-4.3 6.2-7.8 12.4-29.5 53.4-6 11-11.8 21-13 22.3-4.5 4.8-2 8.5 9.2 14.3q11.6 6 12.8 3.2c.5-1.7 5.2-10 10.5-18.7 5-8.8 16-27.3 24-41 38-65 38.7-66.3 47.5-66.3a39 39 0 0 0 31.2-62c-10-14-23-18-40-12.2M467 175.3c-28.7 15-23 69.2 7.5 69.7 8.3.3 31.5 28.8 36.8 45 1 3.5 4.4 9.5 7.7 13.8 5.8 7.7 26.3 42.2 39.5 66.7 9 16.8 8.5 16.5 21.5 8 11.8-7.7 11.5-6.5 2.5-22.2-4-7-9.5-16.6-12-21.3l-30.2-53.2c-26.8-47-27.3-48.3-21.5-55.8 21.2-28.2-19.3-68-51.8-50.7m930 118a41 41 0 0 0-24.5 36c0 10.7-5.7 17.7-57.7 70l-48.3 48.7 9.8 8.3c12.5 10.7 6 15.2 62.5-41.3 49-48.7 49-48.7 67.2-48.7 33.8 0 52.5-25.3 40.3-54.6-7-17-32-26.4-49.3-18.4M307.8 297c-32 16-20.8 70.5 14.4 70.5 14.3 0 21.8 5.5 59 43.3 73 73.7 72.6 73.4 82.3 60.4 8.5-11 9.3-10.2-54.7-73.7-46.6-46.2-46.6-46.2-45-61.2 3.2-33.6-26.6-54.6-56-39.3m1214.7 152.3a53 53 0 0 0-24.7 24.7c-4.8 13.3-8.5 17-28.8 28.8a754 754 0 0 0-29 17.2c-6.2 4-16 10-21.7 13a1667 1667 0 0 0-52.8 30.8c-1 1 12 23.7 13.5 23.7 1.3 0 62-34.2 82.3-46.2 40.5-24.3 42.2-25 53.7-20.3 44.3 17.8 79-36.2 41.5-64.7-9-6.8-26-10.3-34-7M191.3 455c-46.8 22.3-27 76.8 25.7 71.3 13.8-1.5 14.8-1.3 33.5 10.5 40.3 25 113.8 64 118 62.5 3-1.3 13-18.8 11.3-20.3-.8-.7-40.8-24.5-124.8-74-10.2-6-11.2-7.5-12-17.7-2-27-28.2-43.6-51.7-32.3m1407.5 180.3c-4 1-13 8-20 15.2-14.3 15-18.5 17.3-41.3 22.8-9 2-24.7 6-35 9l-38.7 10.2c-21.3 5.5-36.3 10-36.3 11l3.8 13.3c4.5 15.2-7 16.7 113-16.8 24-6.7 31-6.2 45 2.5 14.7 9.3 28.7 10 40.7 1.8 38-25.8 12.8-82-31.2-69M116.5 639Q90 648.6 90 675.5c0 28 28.3 44.3 56 31.8 12.5-5.5 14.5-5.3 46.5 3.7a3162 3162 0 0 0 88.8 22c39.2 8.8 35.2 9.3 39.2-4.5 4.5-15.2 10-12-43.5-26-111-29-110.7-29-112.7-39.7-4-19.5-27.6-31.3-47.8-23.8m1512.3 192.8c-2.8.7-10.5 5.5-17.5 10.5-12.3 9-12.3 9-85.5 9.7l-73.3.8V880h69c75 0 73.5-.2 88.3 15.5a37.7 37.7 0 0 0 62.7-10.5c11.5-28-15.2-60.5-43.7-53.2M83.5 840.5C68.3 852.3 65 858 65 873c.5 34.8 36 50.8 63.3 28.5 13.2-10.7 10-10.5 115-11.2l59.2-.3v-27.5H145l-13.7-13.7c-16.3-16.3-33.6-19.3-47.8-8.3M1433 1018c-3.7 15.8-5.7 13.8 23.8 21 97 24 112.2 29 117.5 39.3 17.5 34.5 48.2 39.5 69 11.2 23.7-32-18.3-75.5-52.5-54.2-9.5 6-17 5.2-52-5.3-13.3-3.7-99-25-101.5-25-.5 0-2.5 5.8-4.3 13m-1126.7-5c-5.6 1.5-16.8 4.8-25.3 7.3-8.2 2.5-17 4.7-19.5 4.7s-13 2.3-23.5 5.3c-10.7 2.7-23.2 6.2-28 7.2-4.7 1.3-17 4.8-27 7.8-18.2 5.5-18.2 5.5-30-3-23.5-17-53.2-8.3-60.5 17.7-12.7 45.5 41 68.8 70.3 30.3 9.2-12.3 18.4-15.3 143.7-48.5 20.3-5.5 20.3-5.5 16.5-18.8-2-7-4.2-12.7-5.2-12.7-.8.2-6 1.5-11.6 2.7m48.8 145c-18 9.5-54 30.3-77.5 44.8-30.7 18.7-42.2 23.2-51 20.2-31.7-11.5-57.7 4.3-57.7 34.8 0 44.5 60.7 50.5 75 7.5 3.7-11.8 22.4-24.8 86.2-60.3 57.3-32 58-33 49.5-47l-5.7-10zm1020.8-.5c-8 13.8-8.8 12.8 22.5 30 91.2 51.3 95.2 54 99 70.8 9.2 41.5 65 45.5 75 5.5 7.2-29.3-12.8-51-44-47.8-16 1.8-38-7.5-80.8-33.5-59.5-36.2-64.5-38-71.7-25m-918.5 114.8c-80.3 81.5-108 105.5-119.5 104-43.3-6-66.3 48.2-29.6 70 26.8 15.5 56.6.7 57-28 .3-14.5.6-14.8 48.6-64l55.7-57L480 1286l-9.2-8.7c-8.8-8.3-9.8-8.8-13.6-5m825.3 6.5c-8.5 8.7-8.5 8.7 25.3 42.7 71.2 72 67.2 67.3 67.2 83.5 0 28 11.8 42.5 36.3 44.5 52.5 4.3 54.5-70.5 2-76.7-10.5-1.3-16.3-3.5-20.8-7.8l-52-50.7c-51.7-50-46.7-47-58-35.5m-711.5 92c-5.2 8.2-30.7 51.2-55.2 94.2-16 27.8-23 35-33.8 35-37 0-44 56.5-8.7 71.3 28.7 12 53-7.3 50.7-40.5-1-18.3-1-18.3 20.3-56.3 40.5-72.7 55.7-100.2 55.2-100.7-20.7-13.3-21.7-13.3-28.5-3m592-1.5c-12.7 7.5-13 5.2 1.3 29.5l31 55.5a818 818 0 0 0 23.7 41.7c3 4.8 3.5 9 2.5 15.8-7.7 43.2 4.5 62.5 38 60 38.8-2.8 46.3-58 9.5-73-5.5-2.3-12-5-14-6-3.5-1.8-22.2-32-63.7-102.8-17.8-30.2-15.3-28.5-28.3-20.7m-455.2 72.5c-3.3 10.7-11.3 40.2-18 65.7a2245 2245 0 0 1-14.3 53.8c-1.5 5.2-5.5 9.2-13.2 13.5-41.3 23-32.3 75.2 13 75.2 27.2 0 43.7-32.5 30.2-59.2-5.2-10-5.2-10 2.3-39.8a4083 4083 0 0 0 29.7-120.7c0-1.8-18-7.8-23.2-7.8-.5 0-3.5 8.8-6.5 19.3m326-17.8c-1.3.5-7 2-12.8 3.3l-10.2 2.7 9.5 36.8c25.5 100.5 24.7 96.7 24.7 105.7a56 56 0 0 1-6.2 20c-12.5 25-5.5 46 18.5 54.3 45.5 16 71.5-44.5 30.2-70.5-5.2-3.3-10.2-8-11-10.5-9.2-32.8-25.5-90.5-31.2-113-8-30.8-7.8-30-11.5-28.8M860 1520.3c0 75.2 0 75.2-7 81.7-34.7 33.3-19 77.5 26 72.3 31.5-3.5 41.8-43.8 17-67-6-5.5-6-5.5-6-72.3 0-91.5.3-90-16.5-90H860z"/><g fill="#C4A862"><path d="M851.3 355.3c-5.5 1.4-20.3 3.2-33 4.2a89 89 0 0 0-26.3 4.8 12 12 0 0 1-8 3.2c-8.2 0-70.5 19.8-84 26.8-3.5 1.7-7 3.2-8 3.2-3.5 0-43.5 19.8-52.7 26a67 67 0 0 1-11 6.5c-7 0-68.3 47.3-93.5 72.3-24 23.2-54.8 58-54.8 61.7 0 1-1.7 3.5-3.7 5.8-47 48.7-90.3 174.5-97.8 284-2 30 5.5 110 12.3 132.5 2.2 7 7 23.7 10.7 37.5 5.8 21.2 25.5 67.2 44.3 103 43 82.5 163.5 191.5 238.2 215.7 5.3 1.8 12 4.8 14.8 6.5 2.7 2 6.5 3.5 8.7 3.5 2 0 6.5 1.5 10 3.3 9.5 4.7 38.5 13.2 66.3 19.2 13.7 3 27.2 6.8 30 8.3 7 4 97.7 5.5 120 1.7l34.7-5.2a105 105 0 0 0 24.3-6c3.7-2 10.7-3.8 15.2-3.8s11.5-1.7 15.5-3.7c3.8-2 9-3.8 11.3-3.8a53 53 0 0 0 14-5 56 56 0 0 1 14-5 10 10 0 0 0 7-3.5c1.7-2 6.7-4.2 11.2-5 4.8-1 9.8-3.2 11.5-5.2a12 12 0 0 1 8-3.8c2.8 0 8.5-2.7 13-6.2s13.8-9 20.5-12.8a108 108 0 0 0 17.3-10.7c2.7-2.3 8.2-5.8 12-7.8 4-2 9.5-6 12.5-8.7 3-2.8 10.5-9 16.7-13.8 6.3-4.5 12.5-9.5 13.8-11 1.5-1.5 8.7-7.7 16.2-14 17-13.7 21.5-18.5 38.5-39.7 7.5-9.5 17.3-21 21.5-25.5a42 42 0 0 0 9-14.3c1-3 2.5-5.5 3.8-5.5s3.5-2.7 4.7-6.2 3.5-6.3 5-6.3c1.3 0 2.5-1.5 2.5-3.2 0-2 2.3-5.5 5-8s5-6.5 5-9 1-5 2.5-6c2.5-1.5 22.5-40.5 22.5-44.3a191 191 0 0 1 13.8-32.5c2-3.5 3.7-8.7 3.7-11.2s1.5-7 3.5-9.8a50 50 0 0 0 5.3-17.2c1-7 3-14 4.5-15.8 1.2-1.7 3.5-14 4.7-27.2 1.3-13.3 3.3-25.5 4.8-27.3 3.5-4.2 4-137 .5-141.5a59 59 0 0 1-4.5-19.5c-.8-9-3-20.7-5-26.2-1.8-5.5-4-15.3-5-21.8a34 34 0 0 0-3.5-13.2c-1.3-.5-3-5.5-4-10.5a87 87 0 0 0-6-19.5c-2.5-5.5-7-15.3-9.8-21.8-3-6.2-6.5-12.2-8-13.2-1.2-.8-2.5-4.5-2.5-8.3 0-3.7-2.2-9.5-5-13s-5-7.5-5-9.2c0-1.5-.7-3.3-1.7-3.8a79 79 0 0 1-15.8-23.7c0-2.3-24-37-31.2-44.8l-10-12.5c-11-13.7-62.3-64.7-67-66.7-2.3-.8-4.3-2.8-4.3-4.3 0-1.2-1.5-2.5-3.2-2.5-2 0-5.5-2.2-8-5s-6-5-8-5c-1.8 0-4-1.7-4.8-3.7-1-2-3-3.8-5-3.8a7 7 0 0 1-5.2-3.2c-1-1.8-4.8-4.6-8.3-6.3-9-4.2-15.7-8.7-18.7-12.2-3.3-4-41-23.3-45.8-23.3-2 0-6.5-1.7-10-3.7-11.7-6.3-30-13.8-34-13.8-2.2 0-4-1-4-2.5 0-1.2-4.2-3-9.2-3.7-5.3-1-13.5-3.3-18.3-5-4.7-2-14.2-4.3-21.2-5-6.8-1-15.5-3.3-19.3-5.3a72 72 0 0 0-27-3.5 86 86 0 0 1-25.5-2.7c-7-3.8-55.5-5.3-68.2-2M911 411c23.3 9.8 27.8 46 7.8 64.8-11.5 10.4-11.5 10.4-11.5 83.7-.3 82.5-1.5 78 20.5 82.8 15.7 3.5 21.2 2.5 25-5a670 670 0 0 0 26-59 98 98 0 0 1 7.7-17.5c2-3 3.5-7.5 3.5-9.8 0-2.2 3.5-11.5 7.5-20.2 9-18.8 9-21.5 2.3-34.8-15.8-29.5 7.5-56 49.2-56 53.5 0 65.8 58.8 16 77.3-12 4.5-12.2 4.7-21.5 29-3.5 9.5-7.5 18.5-8.5 20-1 1.2-6 13.2-11.2 26.2-5.3 13-10.8 27-12.5 31.3-14 33.5-14.3 34.5-11.5 40.2 1.5 3.3 4.7 6 7.2 6 2.8 0 6.5 2 8.8 4.3 16.5 18.2 17 18 70.2-35.8 49-49.5 49-49.5 49-67.7 0-47.5 91.8-54 99-7 4 27.5-16 46.2-49 46.2-12.5 0-18.5 5.3-90.5 79.5-25.7 26.3-27.2 29-20 37 2.5 2.5 8 10 12.5 16.3 10.5 15.7 17.8 18.2 31.5 11 3.8-2 9.5-3.8 12.5-3.8s7.5-1.5 10.3-3.5c2.7-1.7 7.7-4.2 11.2-5.2a293 293 0 0 0 32.5-13.5c2.3-1.3 7.5-3 11.8-3.8 4.2-1 9.2-3.5 11-5.5 1.5-2 5-3.5 7.7-3.5 2.5 0 5.3-2 6.3-4.5 11-31 18.5-36.7 53-39 37.7-2.2 55.7 11.8 51.7 40.5-3.7 27-23 37.3-62.2 33-26.8-3-23.8-3.7-80.5 20-12.3 5.3-31.5 13-42.5 17.5-26.3 11-27.3 12-24 24a82 82 0 0 1 2.7 17.3c0 4.2 2.3 13.7 4.8 21.2l4.7 13.8 62.3.7c62 .5 62 .5 74.5-11.5 31-29.7 93.7-14.5 93.7 22.8 0 11.7-13.5 33.5-22.5 36.2-23.2 6.8-59 0-73.7-14-6.3-5.7-13.8-10.5-16.8-10.5-3.2-.2-28.2-.7-55.7-1.2-67.5-1.3-64.5-2.8-70.3 31.2-1.7 10.3-4 22.3-4.7 26.8-2 9-3.8 7.5 28.7 20.7 7.5 3 15.8 6.5 18.3 7.8 2.2 1.2 11.7 5 21.2 8.5a343 343 0 0 1 41.8 18.5c9.2 4.7 50.7 7 58 3.2 29.7-16 56.2 38.3 30.7 63.3-21 20.5-90 6.7-90-17.8 0-7-6-16.2-11.5-17.5-3.2-.7-7-3-8.5-4.7-1.5-2-6.5-4.3-10.7-5a75 75 0 0 1-16-5.3c-4.5-2-11.8-5.2-16.3-7-4.5-2-13.5-5.7-20.2-8.7a73 73 0 0 0-15.5-5.3 36 36 0 0 1-12.3-5.2c-9.7-5.8-18-4.8-20.2 2.5-.8 2.2-6.3 11.5-12.5 20.2-13.5 19-12.5 22 13.5 46 20.7 19.3 77.7 77 77.7 79 0 1 9.5 2.5 21 2.8 29.8 1.2 44.5 17.5 39.8 43.2-4.8 24.8-19 32.3-56 29.5-35.5-2.7-40.5-7.2-42-36.7-.8-20-.8-20-46.8-65.8-53-52.5-51.7-52-76.2-35.5-18 12.5-18 9.5-1 46.3 3.2 7.2 16.5 40 31.7 78.7 4 10.3 8.3 20.5 9.3 22.5 2.5 4.5 15 12 20.7 12.3 18.8 1 29 35.2 17 57.5-8.2 15.7-59.7 19.5-79.7 6-15.3-10.3-17.8-33-6.5-55.3 4.2-8.5 4.2-8.7-4.5-26.2-5-10-9.8-21-10.8-25-.7-3.8-2.5-6.8-3.5-6.8-1.2 0-3-3.7-3.7-8.2a49 49 0 0 0-5.3-13c-2-2.8-3.5-6.3-3.5-8.3 0-1.7-2.2-8.5-5.2-15-16.5-37-15.5-36.2-39.8-34.7-20.2 1.2-20-.3-18.2 85 1.5 72.2 1.5 72.2 10.5 82.2 28.7 32 10 67-36 67-48.5 0-68-35.5-36.8-67.2l13-13.3-.5-75.2-.7-75.3-18.5-3.2c-19-3.5-30.3.2-30.3 10.5 0 1.5-4 10.5-8.7 20.2-4.8 9.5-8.8 18.3-8.8 19.8 0 1.2-1.7 5.7-3.7 9.5s-4.8 10.5-6 15-5.8 16.2-10 26c-10.3 24.7-11.8 33.7-6.8 43.5 16.3 32.7-3 56.2-45.2 55.5-57.5-.8-73.5-49.3-23.8-71.5 16.3-7.3 21-13 25.3-28.8 1.7-5.7 4-11 5.2-11.7 1.5-.8 2.5-4 2.5-7a22 22 0 0 1 4-11.3c2-3 6-12 8.8-19.7a401 401 0 0 1 18.5-44.5c9.2-20.5 9.2-23.5.7-31.5-4.5-4-10-7.3-12-7.3-2.2 0-6.2-1.7-9-3.7-10.7-8-14.5-5.5-62.7 42.7-46.3 46.5-46.3 46.5-45 56.5 3.2 23.5-11.8 44.8-32 45.3-42.5 1.2-48.8 0-59.3-11.3-23.7-25.7-8-57.7 29.5-60 17.8-.7 17.8-.7 70.8-54 57-57.2 58.5-59.7 45.2-70.5-4-3.5-7.2-7.2-7.5-8.5-.5-13.7-17.2-24-29.2-18-3.8 2-13.3 6-20.8 9-7.5 3.3-17 7.3-21.2 9-23.8 10.5-50 21-52.8 21-4 0-16 14.3-16 19 0 34.3-82.5 39.5-96.5 6.3-11.5-27.3 4.3-50.3 35.5-51.5 7-.3 14-1.3 15.5-2.3a41 41 0 0 1 16.8 1c7.7 1.5 17.4 2 22 1.3 7.7-1.8 11.2-3.3 28.7-12a50 50 0 0 1 10.8-4.3c1.5 0 11-4 21.2-8.7 10.3-4.8 20.8-8.8 23.3-8.8s6-1.5 7.5-3.5c1.7-2 6.7-4.2 11.2-5 15.3-3 15.8-5.5 9-39-7-35.2-.5-32.5-73.5-32.5-60.5 0-60.5 0-68 7.8-37.2 39.2-112.2 12.5-94.7-33.8 6.7-17.2 20-23.7 49.7-24.5 26.3-.5 34.5 3 47 20.3 4.5 6.2 111.8 10.5 126 5.2 8-3.2 14.5-25.7 16.8-58.5.5-7-28.5-26-40.3-26.5-3 0-8.5-2.2-34.7-14a301 301 0 0 0-39-15c-11-3.2-15.3-3.5-17.3-1.5-6 6-43.2 3.8-56.5-3.5-18.2-9.7-25.5-26.2-19.2-42.7 15.2-40 90.2-37.8 98.7 3 2 10 10 15 50 31 18.5 7.2 41.5 16.7 51 20.7 22.3 9.8 36.8 2.5 45.8-22.2.7-2.5 3.2-6.8 5.5-9.3 3-3.5 3.2-5 1-5.7-1.8-.8-3.3-2.5-3.3-3.8 0-1.5-22.2-25-49.2-52.5C591.3 610 591.3 610 578 610c-62.7 0-63.2-71.7-.5-75.7 40-2.5 57.5 11.5 54.3 44-1 12.2-1 12.2 43 56 57.2 57 54.5 55.5 75 40.2 3.2-2.5 8-4.5 10.5-4.5 6.7 0 6.5-21.2-.3-30-2.7-3.5-5-8.7-5-11.7s-1-6-2.2-7c-1.3-.8-3.3-4.8-4-9a274 274 0 0 0-15.3-39A40 40 0 0 1 730 563a36 36 0 0 0-3.7-9.7c-2-3.8-6.5-13.3-9.8-21-6-14-9.7-17.3-19.2-17.3-20.3 0-34.8-37.7-21.8-56.5 17.3-25 73.8-26.2 89.8-1.7 6.7 10 6.2 30.7-.8 43-5.5 9.4-5.5 9.4 10.3 49.2 37 94.8 38 96 55.5 96 16.5 0 27.2-4.2 27.2-10.7l1-73.3 1-67.7-13.5-15.8c-27.5-32.7-15.7-63.2 26-67.5 26.5-2.7 30.3-2.7 39 1"/><path d="M860.3 675.8c-1.8 2.2-7.8 4.7-13.5 5.5-26.5 4.2-63.3 24.5-89 48.7-21 20-52.8 71.8-52.8 86.3 0 3-1.7 9.7-3.7 14.5-17.8 42.5 10.2 139.7 52.2 180.5 54 52.5 149.8 73.2 195.3 42.2 2.7-2 7-3.5 9.5-3.5 4.2 0 19.7-9.5 21.2-13.2.5-1 2.5-1.8 4.3-1.8 2 0 4.7-2.2 6.2-5s4.3-5 6-5c5.3 0 42-42.5 45-51.7 1-3 3.3-6.8 5.3-8.3 2-1.7 3.7-5.7 3.7-8.7s1.8-7 3.8-8.8c2-1.7 3.7-5.7 3.7-9.2a54 54 0 0 1 5.3-17.5c6.2-13.5 6.5-86.3.5-93.5-1.8-2-3.8-8.8-4.8-14.8-1-6.2-3-14-4.7-17.5l-8.5-17.7c-3-6.5-7-13-9-14.8-2-1.7-3.8-4.2-3.8-5.7 0-1.3-2.5-5-5.5-8-3.2-3-9-9-12.7-13.3a263 263 0 0 0-38-32.2 167 167 0 0 0-34.3-15.8 10 10 0 0 1-6.2-2.7c-7.5-7.5-70.5-15-75.5-9m49.2 164c23 11.7 27.8 39.2 9.8 57-15 15-60.8 13.5-74.8-2.3-31-35 20-77.7 65-54.7"/></g></svg><g fill="#1A1814"><path d="m1802.4 552.5-7.1 17.4c-3.5 8.5-6.1 15.6-5.9 15.8s1.2-1.7 2.1-4.2 2.2-4.2 2.6-3.8c.6.7 3.8 8.3 13 31.5l1.9 4.8h-30.2l.7-2.7c1.2-4.8-.2-2.2-5 9.7-6.3 15.4-8.7 19.9-12.4 23.4l-3.1 3-2.8-2a609 609 0 0 1-26.5-30l-23.7-27.9 9.2-8.8c19.1-18 21.4-19.9 29.6-22.8l7.7-2.8H1739c-12.5 0-13.3.1-10.2 1.4q5.4 2.6 1.7 8.3c-.9 1.2-9.3 9.2-18.8 17.9a332 332 0 0 0-17.2 16.4c0 .4 8.5 10.7 18.8 22.9 13.1 15.6 18.7 22.9 18.5 24.3q-.4 2-3.8 3.3c-3 1.1.8 1.3 24.5 1.3l28 .1-4.2-1.9c-7.6-3.5-8.1-8.3-2.5-22.2l3.8-9.4 16-.3 15.9-.2 3.8 9.2c5.2 12.9 5.8 15.3 4.5 18.8-.5 1.7-1.1 3-1.1 3l-4.2 1.5c-3.6 1.3 1.5 1.4 48.3 1.5 32.9 0 52.2-.4 52.2-1l1.6-12.1c.8-6.1 1.3-11.4 1-11.7q-.6-.4-.6 1.2c0 3.2-4.8 11.2-9.3 15.3a29 29 0 0 1-21.5 7.1c-9.7-.8-9.2 1.5-9.2-46q0-41 1.1-43c.6-1.1 2.9-2.8 5.2-3.9l4.2-1.9-20.5.1c-16.9 0-19.9.3-17.3 1.2 1.8.7 4.3 2.2 5.5 3.5l2.3 2.3.3 40.2c.2 43 .1 43.9-4.7 46.3-3.1 1.6-5.9.5-9.3-3.7-1.6-2-10.1-21.6-20.7-47.9-13.3-33-18.2-44-18.7-42.5m239.3.1c5.6 2 11.3 8.4 11.3 12.7 0 1.7-1.4 18.5-3.1 37.2-3.5 37.9-3.6 38.6-10.9 42.2l-4.4 2.3 12.9-.1c7.2 0 12.3-.3 11.5-.6-11.7-4.2-11.5-3.4-8-41.9 1.6-17.6 3-32.9 3-34.2q0-2 .8-2.2c.8-.2 8.5 18 18.1 40a487 487 0 0 0 18.1 39.3c.4-.4 8.3-18.5 17.6-40a911 911 0 0 1 17.5-39.3c.3 0 2 16 3.7 35.5 2.4 26 3 36.1 2.2 37.5-.6 1.1-2.7 2.9-4.8 3.9l-3.7 2h38.5c38.1.1 38.5 0 34.5-1.8-2.3-1-4.6-2.9-5.3-4.5-1.7-3.8-1.7-79.4 0-83.2.7-1.6 3-3.5 5.3-4.5l4-1.9-20.5.1c-16.9 0-19.9.3-17.3 1.2 1.8.7 4.3 2.2 5.5 3.5l2.3 2.3V640l-2.7 2.7c-4.6 4.5-13.5 2.8-15.7-3-.5-1.2-2.4-19.7-4.2-41-3.7-43.4-3.8-42.5 3.1-45.9 3.5-1.7 3.5-1.7-8.3-1.5l-11.8.2-15.6 36.3c-14.2 32.9-15.8 36.1-16.9 34-.6-1.3-7.8-17.7-15.9-36.6l-14.8-34.2-15.1.1c-14.6.1-15 .1-10.9 1.5"/><path d="m1668.5 554.5 4.2 1.5c.1 0 .9 1.3 1.8 3 1.3 2.4 1.5 8.9 1.5 42s-.2 39.6-1.5 42c-.9 1.7-1.7 3-1.8 3l-4.2 1.5c-3.7 1.3-2.6 1.4 16 1.4 16.5 0 19.4-.3 16.8-1.2-1.8-.7-4.3-2.2-5.5-3.5l-2.3-2.3v-81.8l2.3-2.3c1.2-1.3 3.7-2.8 5.5-3.5 2.6-.9-.3-1.2-16.8-1.2-18.6 0-19.7.1-16 1.4m251.2-.2c1.8.7 4.3 2.2 5.5 3.5l2.3 2.3v41.4c0 41 0 41.5-2.1 43.6a15 15 0 0 1-5.5 2.9c-1.9.4 11.5.8 30.9.9 21.4.1 34.2-.3 34.2-.9l1.6-12.1c.8-6.1 1.3-11.4 1-11.7q-.6-.4-.6 1.2c0 3.2-4.8 11.2-9.3 15.3a29 29 0 0 1-21.5 7.1c-9.7-.8-9.2 1.5-9.2-46q0-41 1.1-43c.6-1.1 2.9-2.8 5.2-3.9l4.2-1.9-20.5.1c-16.9 0-19.9.3-17.3 1.2m-132.1 34.2q-1.3 4 .5 1.2c.6-1 .9-2.1.6-2.3q-.4-.3-1.1 1.1m-3.5 8.6c-1.2 2.9-2 5.4-1.8 5.6s1.4-2 2.6-4.8c1.2-2.9 2-5.4 1.8-5.6s-1.4 2-2.6 4.8m-3.5 8.4q-1.3 4 .5 1.2c.6-1 .9-2.1.6-2.3q-.4-.3-1.1 1.1"/></g><path fill="#C4A862" d="M2331.7 565.5c-1 .7-4.1 1.9-6.8 2.5-5.4 1.3-6.5 3-2 3 1.6 0 3.1.5 3.3 1.2s-2.6 14.2-6.4 30.2c-7.6 32.8-8.2 37.1-5.3 39.2 4.3 3.2 10.8-1.3 15.1-10.4 1.4-2.9 2.4-6.1 2.2-7s-1.6.9-3.3 4.6a19 19 0 0 1-4.6 7.2q-4.8 2.5-4.9-1.4a730 730 0 0 1 7.5-34.7c4.2-17.7 7.5-33.1 7.3-34-.3-1.5-.5-1.6-2.1-.4M2299 570c-2.4 2.4-2.6 5.3-.4 7.5 2.8 2.7 8.4-.4 8.4-4.6 0-1.7-3.5-4.9-5.2-4.9q-1 .2-2.8 2m-290.7 20a13 13 0 0 0-6.3 10.7c0 6 6.4 12.3 12.5 12.3 6.2 0 12.5-6.3 12.5-12.5s-6.3-12.5-12.7-12.5c-1.5 0-4.2.9-6 2m250.8-.9c-4.6 1.4-12.2 9.3-15.4 16-5.2 11.1-5.4 25.7-.3 32.4 5.6 7.3 14.5 6.7 22.5-1.3a35 35 0 0 0 10.9-26.3c.4-8.3.1-10.1-1.7-13.7-3.4-6.6-9-9.2-16-7.1m7.9 1.9c8.5 4.6 3 36.5-8.2 46.6-4.3 3.9-6.9 4.3-9.7 1.5-7.7-7.7 0-41.8 10.8-47.6 3.1-1.7 4.6-1.8 7.1-.5m26.5-1.5q-5.5 2.9-9.6 13.4c-2.3 6.1-.9 6.9 1.6.9.9-2.3 2.5-5.4 3.6-7 2.2-3 5.6-3.7 6.5-1.3.3.8-1.3 9.6-3.6 19.5s-4.2 19.6-4.3 21.6c-.2 6.8 5.8 8.1 11.6 2.6 3.2-3.1 8-12.6 7.5-15-.2-1-1.6.9-3.3 4.6-2.7 6.1-4.7 8.2-7.9 8.2-2.4 0-2-3 2.4-21.7 2.2-9.2 4-18.7 4-21.1 0-3.6-.4-4.4-2.6-5.2-3-1.2-2.3-1.3-5.9.5"/></svg>